<?xml version="1.0" encoding="utf-8"?>
<!-- Generator: Adobe Illustrator 16.0.0, SVG Export Plug-In . SVG Version: 6.00 Build 0)  -->
<!DOCTYPE svg PUBLIC "-//W3C//DTD SVG 1.1//EN" "http://www.w3.org/Graphics/SVG/1.1/DTD/svg11.dtd">
<svg version="1.1" id="Capa_1" xmlns="http://www.w3.org/2000/svg" xmlns:xlink="http://www.w3.org/1999/xlink" x="0px" y="0px"
	 width="2000px" height="2000px" viewBox="0 0 2000 2000" enable-background="new 0 0 2000 2000" xml:space="preserve">
<symbol  id="Nuevo_símbolo_1_" viewBox="-101.511 -494.797 203.021 989.594">
	<polygon points="-2.229,-494.797 -101.511,494.797 101.511,494.797 	"/>
</symbol>
<symbol  id="Nuevo_símbolo_1_1_" viewBox="-101.511 -494.797 203.021 989.594">
	<use xlink:href="#Nuevo_símbolo_1_"  width="203.021" height="989.594" x="-101.511" y="-494.797" overflow="visible"/>
</symbol>
<g id="Nuevo_símbolo_1">
	<g id="Nuevo_símbolo">
	</g>
</g>
<g opacity="0.2">
	<g>
		<path fill="#FFFFFF" d="M1142.889,1052.036c0,0,3.694,1.134,10.619,3.26c6.931,2.114,17.102,5.195,30.084,9.017
			c25.94,7.636,63.229,18.262,108.178,29.792c44.913,11.531,97.763,24.005,154.707,35.628c28.453,5.813,57.968,11.435,88.077,16.716
			c15.055,2.641,30.258,5.197,45.549,7.654c15.261,2.45,30.598,4.799,45.968,7.039c30.738,4.482,61.587,8.522,92.049,12.075
			c30.496,3.563,60.42,6.599,89.557,9.18c29.111,2.577,57.332,4.677,84.151,6.355c26.798,1.676,52.119,2.917,75.571,3.838
			c46.865,1.839,86.161,2.375,113.565,2.5c13.712,0.063,24.497,0.03,31.853-0.005c7.357-0.049,11.281-0.075,11.281-0.075
			s-0.232,1.384-0.668,3.979c-0.443,2.594-1.057,6.402-1.988,11.229c-1.829,9.659-4.376,23.468-8.068,39.926
			c-0.912,4.116-1.826,8.41-2.867,12.835c-1.069,4.42-2.174,8.988-3.311,13.686c-1.162,4.69-2.309,9.52-3.607,14.426
			c-1.318,4.9-2.665,9.908-4.034,15c-2.704,10.194-5.862,20.627-9.034,31.237c-1.563,5.313-3.291,10.62-5.012,15.952
			c-1.74,5.326-3.488,10.673-5.236,16.021c-1.854,5.31-3.707,10.62-5.554,15.91c-1.88,5.277-3.702,10.554-5.685,15.722
			c-3.926,10.352-7.726,20.566-11.761,30.304c-2,4.877-3.967,9.672-5.892,14.365c-1.934,4.69-3.956,9.22-5.874,13.652
			c-1.944,4.421-3.836,8.722-5.665,12.881c-1.857,4.146-3.73,8.115-5.501,11.938c-7.038,15.318-13.396,27.834-17.783,36.627
			c-2.188,4.399-4.032,7.787-5.238,10.127c-1.225,2.328-1.878,3.57-1.878,3.57s-3.091-2.428-8.886-6.979
			c-5.802-4.539-14.321-11.179-25.22-19.534c-21.757-16.687-53.223-40.337-91.488-67.538c-19.155-13.613-39.97-28.095-62.266-43.14
			c-22.292-15.045-45.958-30.597-70.628-46.298c-49.264-31.386-102.893-63.449-157.157-93.637
			c-27.124-15.101-54.594-29.833-81.717-43.876c-27.154-14.06-53.996-27.447-80.21-40.062
			c-52.473-25.26-101.951-47.191-144.815-65.139c-42.877-17.964-78.938-31.917-104.248-41.447
			c-12.646-4.761-22.63-8.427-29.456-10.917C1146.527,1053.355,1142.889,1052.036,1142.889,1052.036z"/>
	</g>
	<g>
		<path fill="#FFFFFF" d="M1104.272,1112.695c0,0,2.747,2.718,7.896,7.813c5.159,5.087,12.742,12.534,22.47,21.943
			c19.438,18.799,47.538,45.517,81.99,76.6c17.226,15.542,36.069,32.205,56.249,49.584c20.171,17.373,41.718,35.498,64.188,53.855
			c44.948,36.748,94.151,74.868,144.351,111.378c25.12,18.285,50.539,36.234,75.839,53.577
			c25.27,17.319,50.377,33.994,74.941,49.856c24.547,15.85,48.566,30.9,71.466,44.864c22.894,13.96,44.742,26.897,65.052,38.654
			c20.309,11.758,39.077,22.335,55.8,31.593c16.704,9.242,31.338,17.145,43.442,23.608c12.102,6.46,21.658,11.469,28.182,14.872
			c6.531,3.394,10.015,5.203,10.015,5.203s-3.415,4.434-9.392,12.19c-3.063,3.818-6.783,8.454-11.05,13.771
			c-2.148,2.647-4.414,5.48-6.855,8.423c-2.461,2.926-5.049,6.002-7.75,9.211c-2.715,3.197-5.544,6.527-8.473,9.974
			c-2.963,3.415-6.068,6.908-9.253,10.508c-3.2,3.584-6.488,7.267-9.849,11.03c-3.43,3.699-6.935,7.479-10.498,11.323
			c-14.265,15.366-30.063,31.204-46.181,46.706c-16.249,15.364-32.822,30.394-48.853,43.919c-4.011,3.378-7.954,6.699-11.813,9.95
			c-3.921,3.18-7.756,6.291-11.489,9.319c-3.755,3.003-7.406,5.924-10.939,8.749c-3.584,2.762-7.047,5.43-10.371,7.992
			c-3.336,2.546-6.534,4.985-9.575,7.306c-3.052,2.306-5.996,4.431-8.743,6.453c-5.519,4.011-10.329,7.507-14.292,10.387
			c-8.038,5.605-12.631,8.809-12.631,8.809s-1.616-3.583-4.647-10.301c-3.043-6.711-7.522-16.542-13.316-28.995
			c-5.801-12.462-12.888-27.505-21.238-44.728c-8.349-17.219-17.911-36.55-28.58-57.476s-22.442-43.445-35.197-67.054
			c-12.793-23.661-26.566-48.41-41.157-73.758c-29.126-50.654-61.751-103.877-95.849-155.822
			c-17.021-25.953-34.508-51.733-52.024-76.773c-17.524-25.054-35.104-49.399-52.438-72.72
			c-34.736-46.742-68.37-89.181-97.955-124.988c-29.605-35.848-55.03-64.984-72.995-85.204
			c-8.981-10.106-16.102-17.991-20.983-23.375C1106.878,1115.558,1104.272,1112.695,1104.272,1112.695z"/>
	</g>
	<g>
		<path fill="#FFFFFF" d="M1042.337,1148.658c0,0,1.162,3.685,3.343,10.594c2.193,6.905,5.43,17.029,9.651,29.888
			s9.431,28.45,15.591,46.287c6.158,17.834,13.276,37.933,21.277,59.685c8.008,21.774,16.929,45.292,26.703,70.064
			c9.769,24.757,20.415,50.837,31.771,77.531c11.363,26.728,23.487,54.221,36.229,82.01c6.369,13.892,12.897,27.871,19.548,41.842
			c6.642,13.949,13.415,27.916,20.295,41.842c13.757,27.854,27.939,55.548,42.305,82.648c14.363,27.101,28.859,53.488,43.271,78.938
			c14.403,25.433,28.695,49.866,42.535,72.898c13.814,22.977,27.181,44.563,39.732,64.388c25.1,39.649,46.952,72.283,62.403,94.904
			c7.734,11.327,13.885,20.19,18.092,26.228c4.218,6.03,6.468,9.246,6.468,9.246s-1.273,0.593-3.661,1.705
			c-2.395,1.097-5.878,2.762-10.372,4.757c-9.008,3.949-21.815,9.726-37.47,16.013c-3.908,1.581-7.98,3.228-12.194,4.932
			c-4.246,1.627-8.636,3.308-13.149,5.036c-4.521,1.707-9.155,3.486-13.924,5.222c-4.784,1.694-9.672,3.426-14.643,5.187
			c-19.892,7.019-41.373,13.747-62.987,19.997c-5.411,1.531-10.843,2.993-16.25,4.46c-5.415,1.435-10.788,2.952-16.169,4.247
			c-5.377,1.316-10.711,2.621-15.98,3.911c-2.639,0.631-5.261,1.257-7.864,1.88c-2.612,0.578-5.206,1.153-7.778,1.724
			c-10.294,2.257-20.247,4.442-29.736,6.213c-9.48,1.823-18.446,3.556-26.757,4.894c-8.305,1.371-15.917,2.678-22.681,3.653
			c-6.768,0.952-12.667,1.783-17.526,2.467c-4.86,0.674-8.681,1.183-11.289,1.471c-2.607,0.307-3.998,0.47-3.998,0.47
			s0.243-3.92,0.697-11.271c0.44-7.351,1.066-18.127,1.754-31.837c1.369-27.486,2.978-66.727,3.641-113.674
			c0.684-46.882,0.344-101.774-1.816-160.174c-0.539-14.614-1.185-29.426-1.955-44.456c-0.772-15.037-1.661-30.239-2.671-45.542
			c-2.018-30.606-4.52-61.617-7.486-92.534c-2.971-30.945-6.425-61.886-10.258-92.193c-3.838-30.341-8.043-60.009-12.542-88.782
			c-4.493-28.754-9.242-56.447-14.065-82.62c-4.824-26.179-9.715-50.804-14.495-73.578c-9.545-45.494-18.523-83.102-25.041-109.347
			c-3.257-13.112-5.909-23.428-7.731-30.455C1043.315,1152.402,1042.337,1148.658,1042.337,1148.658z"/>
	</g>
	<g>
		<path fill="#FFFFFF" d="M969.715,1151.476c0,0-0.676,3.803-1.943,10.934c-1.254,7.134-3.075,17.602-5.289,30.948
			c-4.425,26.691-10.424,64.912-16.421,111.014c-5.985,45.993-11.929,99.871-16.568,157.894
			c-4.638,57.856-7.962,119.93-9.406,182.076c-0.727,31.041-1.007,62.139-0.854,92.793c0.076,15.327,0.259,30.544,0.542,45.588
			c0.283,15.036,0.67,29.847,1.145,44.451c0.949,29.195,2.26,57.449,3.817,84.261c0.778,13.406,1.617,26.451,2.499,39.073
			c0.882,12.604,1.806,24.763,2.754,36.45c3.788,46.738,7.949,85.727,11.093,113.018c1.574,13.655,2.891,24.365,3.8,31.649
			c0.923,7.294,1.416,11.184,1.416,11.184s-1.392-0.06-4.001-0.171c-2.612-0.156-6.444-0.385-11.32-0.676
			c-4.875-0.318-10.794-0.706-17.584-1.15c-6.792-0.559-14.454-1.228-22.808-1.994c-16.706-1.607-36.188-3.865-56.998-6.926
			c-5.207-0.714-10.487-1.574-15.831-2.455c-5.342-0.893-10.748-1.796-16.198-2.706c-5.445-0.937-10.917-2.018-16.414-3.056
			c-5.493-1.068-11.015-2.092-16.513-3.256c-21.998-4.627-43.904-9.757-64.257-15.295c-5.087-1.388-10.089-2.753-14.985-4.089
			c-4.879-1.396-9.639-2.815-14.273-4.188c-4.63-1.392-9.133-2.744-13.489-4.053c-4.331-1.392-8.514-2.736-12.531-4.027
			c-16.084-5.117-29.292-9.948-38.574-13.223c-4.632-1.662-8.233-3.068-10.704-3.987c-2.465-0.935-3.78-1.433-3.78-1.433
			s2.037-3.361,5.855-9.665c3.805-6.309,9.368-15.57,16.344-27.399c13.937-23.619,33.598-57.697,55.973-98.99
			c11.192-20.659,23.056-43.1,35.278-67.026c12.233-23.955,24.803-49.336,37.396-75.731
			c25.184-52.718,50.489-109.811,73.872-167.366c11.692-28.747,22.974-57.788,33.623-86.432
			c10.654-28.654,20.694-56.972,30.017-84.47c18.698-55.148,34.472-106.989,47.066-151.653
			c12.629-44.753,22.106-82.251,28.497-108.537c3.194-13.144,5.619-23.485,7.258-30.539
			C968.847,1155.245,969.715,1151.476,969.715,1151.476z"/>
	</g>
	<g>
		<path fill="#FFFFFF" d="M905.545,1120.808c0,0-2.37,3.053-6.812,8.776c-4.433,5.731-10.92,14.152-19.097,24.938
			c-8.176,10.785-18.042,23.937-29.214,39.145c-11.177,15.213-23.655,32.479-37.011,51.428
			c-13.368,18.964-27.655,39.669-42.492,61.787c-14.838,22.118-30.236,45.663-45.771,70.175
			c-31.104,49.04-63.038,102.444-93.262,156.669c-15.139,27.134-29.907,54.525-44.087,81.728
			c-14.148,27.151-27.694,54.096-40.486,80.387c-12.783,26.273-24.844,51.941-35.941,76.342
			c-11.104,24.408-21.318,47.658-30.544,69.237c-9.227,21.579-17.467,41.487-24.642,59.205
			c-7.154,17.686-13.241,33.176-18.196,45.971c-4.953,12.793-8.773,22.886-11.365,29.772c-2.581,6.894-3.957,10.57-3.957,10.57
			s-4.821-2.864-13.257-7.876c-4.167-2.586-9.226-5.727-15.029-9.33c-2.89-1.82-5.965-3.757-9.207-5.799
			c-3.205-2.097-6.574-4.302-10.09-6.603c-3.505-2.317-7.156-4.73-10.934-7.229c-3.764-2.52-7.6-5.201-11.563-7.933
			c-3.949-2.75-8.005-5.576-12.151-8.464c-4.089-2.966-8.266-5.996-12.514-9.077c-16.991-12.331-34.62-26.129-51.946-40.286
			c-4.31-3.564-8.576-7.182-12.831-10.777c-4.242-3.611-8.502-7.168-12.608-10.834c-8.243-7.297-16.389-14.442-24.027-21.624
			c-3.831-3.577-7.598-7.095-11.286-10.538c-3.664-3.468-7.181-6.932-10.626-10.279c-3.43-3.365-6.766-6.638-9.993-9.804
			c-3.168-3.225-6.229-6.34-9.168-9.331c-5.865-5.994-11.218-11.511-15.841-16.518c-4.636-4.994-8.678-9.348-12.007-12.933
			c-3.292-3.618-5.832-6.505-7.58-8.458c-1.741-1.959-2.669-3.005-2.669-3.005s3.362-2.035,9.666-5.852
			c6.295-3.827,15.515-9.456,27.18-16.704c23.299-14.471,56.492-35.53,95.475-61.739c19.496-13.106,40.423-27.485,62.346-42.997
			c21.952-15.539,44.868-32.18,68.28-49.704c46.789-34.987,95.732-73.772,143.204-113.837c23.723-20.005,47.239-40.473,69.99-60.854
			c22.776-20.403,44.825-40.757,65.917-60.777c42.244-40.088,80.331-78.546,112.349-112.227
			c32.038-33.685,57.914-62.417,75.833-82.675c8.952-10.121,15.942-18.156,20.696-23.644
			C903.017,1123.737,905.545,1120.808,905.545,1120.808z"/>
	</g>
	<g>
		<path fill="#FFFFFF" d="M861.925,1063c0,0-3.516,1.603-10.107,4.606c-6.587,3.016-16.24,7.459-28.488,13.212
			c-24.478,11.5-59.405,28.275-100.71,49.479c-41.258,21.17-89.062,46.888-139.399,75.971
			c-25.147,14.523-50.963,29.893-76.999,45.91c-13.018,8.009-26.091,16.178-39.165,24.479c-13.05,8.289-26.084,16.702-39.076,25.219
			c-25.979,17.031-51.749,34.464-76.908,52.003c-25.177,17.546-49.604,35.122-73.125,52.506
			c-23.504,17.373-46.026,34.51-67.219,51.033c-21.145,16.491-40.954,32.363-59.12,47.215
			c-36.325,29.698-66.089,55.327-86.681,73.39c-10.313,9.042-18.369,16.216-23.855,21.118c-5.478,4.913-8.4,7.533-8.4,7.533
			s-0.741-1.189-2.129-3.419c-1.375-2.24-3.447-5.487-5.961-9.7c-5.004-8.441-12.26-20.435-20.386-35.179
			c-2.044-3.678-4.191-7.498-6.354-11.486c-2.126-4.01-4.325-8.154-6.585-12.416c-2.235-4.274-4.576-8.641-6.852-13.167
			c-2.261-4.534-4.571-9.167-6.92-13.878c-4.732-9.404-9.271-19.302-13.94-29.327c-2.355-5.003-4.557-10.128-6.819-15.248
			c-2.244-5.129-4.498-10.277-6.702-15.447c-8.663-20.749-16.878-41.695-23.872-61.596c-1.743-4.977-3.456-9.871-5.133-14.661
			c-1.634-4.805-3.154-9.533-4.656-14.128c-1.481-4.602-2.922-9.078-4.316-13.407c-1.313-4.354-2.582-8.563-3.8-12.602
			c-4.91-16.148-8.44-29.762-11.002-39.265c-1.281-4.752-2.149-8.52-2.798-11.074c-0.628-2.56-0.964-3.925-0.964-3.925
			s3.923-0.231,11.28-0.665c7.353-0.447,18.134-1.125,31.833-2.094c27.351-1.931,66.589-5.09,113.272-10.102
			c23.364-2.511,48.56-5.477,75.211-8.998c26.664-3.523,54.694-7.579,83.572-12.191c57.693-9.186,119.073-20.758,179.723-34.17
			c30.302-6.688,60.628-13.887,90.247-21.374c29.642-7.492,58.638-15.292,86.588-23.23c56.02-15.907,107.626-32.333,151.575-47.325
			c44.008-15.001,80.254-28.48,105.519-38.138c12.639-4.832,22.508-8.697,29.273-11.362C858.326,1064.426,861.925,1063,861.925,1063
			z"/>
	</g>
	<g>
		<path fill="#FFFFFF" d="M850.676,991.658c0,0-3.865-0.21-11.111-0.604c-7.256-0.382-17.88-0.919-31.38-1.493
			c-27.02-1.149-65.661-2.463-112.135-2.837c-11.616-0.094-23.731-0.13-36.257-0.091c-12.505,0.042-25.439,0.157-38.74,0.359
			c-26.603,0.403-54.679,1.157-83.741,2.342c-14.527,0.592-29.318,1.29-44.264,2.102c-14.925,0.813-30.036,1.739-45.27,2.779
			c-30.468,2.079-61.43,4.621-92.394,7.607c-31.002,2.983-61.813,6.41-92.232,10.207c-30.397,3.794-60.304,7.958-89.231,12.365
			c-57.757,8.803-111.517,18.63-157.566,27.944c-46.003,9.304-84.134,18.065-110.857,24.427
			c-13.353,3.182-23.836,5.763-30.982,7.536c-7.145,1.786-10.956,2.739-10.956,2.739s-0.358-5.572-0.984-15.322
			c-0.146-2.438-0.308-5.139-0.483-8.077c-0.16-2.938-0.272-6.111-0.416-9.505c-0.259-6.784-0.587-14.448-0.79-22.794
			c-0.144-8.339-0.261-17.374-0.331-26.931c0.071-9.556,0.181-19.632,0.395-30.058c0.368-10.444,0.702-21.228,1.309-32.196
			c0.343-5.485,0.688-11.014,1.036-16.565c0.187-2.774,0.374-5.554,0.561-8.337c0.236-2.784,0.472-5.57,0.708-8.356
			c0.5-5.57,0.999-11.141,1.497-16.689c0.484-5.547,1.175-11.07,1.773-16.548c0.642-5.476,1.279-10.908,1.908-16.275
			c0.738-5.359,1.466-10.654,2.183-15.862c0.753-5.204,1.423-10.326,2.249-15.324c0.821-4.998,1.624-9.888,2.406-14.647
			c1.536-9.522,3.265-18.487,4.856-26.762c0.808-4.135,1.581-8.098,2.317-11.867c0.805-3.757,1.568-7.32,2.286-10.669
			c1.474-6.689,2.76-12.521,3.818-17.324c2.311-9.565,3.631-15.031,3.631-15.031s3.585,1.613,10.307,4.638
			c6.726,3.011,16.597,7.408,29.189,12.896c12.599,5.49,27.894,12.064,45.541,19.424c17.667,7.364,37.645,15.502,59.508,24.1
			c21.863,8.599,45.613,17.654,70.817,26.872c25.224,9.223,51.987,18.622,79.714,27.916c27.75,9.299,56.458,18.491,85.808,27.388
			c29.375,8.903,59.299,17.496,89.299,25.622c15,4.063,30.018,8.011,44.995,11.828c14.989,3.82,29.985,7.517,44.852,11.07
			c29.746,7.108,59.082,13.65,87.518,19.583c28.401,5.928,56.072,11.273,82.267,16.002c26.211,4.733,51.026,8.862,73.95,12.43
			c45.856,7.139,84.323,12.067,111.174,15.259c13.439,1.597,24.003,2.767,31.206,3.55
			C846.834,991.248,850.676,991.658,850.676,991.658z"/>
	</g>
	<g>
		<path fill="#FFFFFF" d="M873.126,924.392c0,0-3.314-1.986-9.529-5.711c-6.222-3.714-15.36-9.145-27.048-15.97
			c-11.689-6.824-25.93-15.042-42.369-24.31c-8.22-4.634-16.989-9.53-26.264-14.646c-9.258-5.106-19.011-10.425-29.229-15.923
			c-20.433-10.995-42.704-22.693-66.446-34.765c-23.746-12.076-48.961-24.526-75.165-37.001
			c-52.429-24.982-109.285-50.251-166.758-73.719c-28.762-11.757-57.736-23.115-86.452-33.908
			c-28.657-10.765-57.043-20.959-84.687-30.48c-27.627-9.514-54.566-18.383-80.131-26.447c-25.573-8.07-49.889-15.395-72.427-21.939
			c-22.539-6.546-43.299-12.313-61.757-17.288c-18.428-4.96-34.539-9.122-47.841-12.489c-13.3-3.365-23.782-5.933-30.933-7.67
			c-7.156-1.725-10.973-2.645-10.973-2.645s2.264-5.144,6.226-14.145c2.069-4.459,4.582-9.873,7.464-16.083
			c1.461-3.096,3.016-6.39,4.655-9.862c1.699-3.442,3.485-7.062,5.349-10.838c1.882-3.768,3.842-7.692,5.871-11.754
			c2.049-4.051,4.256-8.19,6.495-12.464c2.26-4.261,4.582-8.638,6.956-13.112c2.457-4.426,4.966-8.948,7.519-13.546
			c10.216-18.394,21.816-37.594,33.815-56.528c3.012-4.725,6.109-9.393,9.17-14.059c3.09-4.646,6.099-9.323,9.253-13.843
			c6.275-9.063,12.386-18.035,18.611-26.484c3.098-4.236,6.144-8.402,9.125-12.479c2.989-4.072,6.024-7.969,8.935-11.797
			c2.934-3.811,5.788-7.517,8.548-11.102c2.791-3.56,5.541-6.957,8.165-10.231c10.451-13.136,19.589-23.719,25.917-31.186
			c3.18-3.719,5.757-6.572,7.483-8.544c1.738-1.962,2.665-3.009,2.665-3.009s2.423,3.094,6.967,8.895
			c4.553,5.791,11.246,14.269,19.838,24.98c17.155,21.394,42.057,51.841,72.735,87.394c15.351,17.788,32.118,36.828,50.163,56.75
			c18.054,19.932,37.319,40.687,57.521,61.83c40.335,42.254,84.724,86.211,130.18,128.525
			c22.716,21.161,45.851,42.047,68.813,62.187c22.991,20.164,45.829,39.6,68.254,58.146c22.426,18.549,44.339,36.14,65.299,52.543
			c20.963,16.408,40.945,31.612,59.614,45.501c37.292,27.751,68.928,49.978,91.195,65.324c11.123,7.667,19.958,13.647,25.97,17.701
			C869.913,922.234,873.126,924.392,873.126,924.392z"/>
	</g>
	<g>
		<path fill="#FFFFFF" d="M925.633,873.932c0,0-2.017-3.295-5.798-9.473c-3.793-6.172-9.375-15.215-16.571-26.674
			c-14.385-22.903-35.27-55.532-61.325-93.97c-26.013-38.389-57.328-82.728-92.283-129.181
			c-17.458-23.208-35.834-46.978-54.878-70.889c-9.521-11.956-19.209-23.947-29.028-35.923
			c-9.801-11.951-19.727-23.878-29.748-35.748c-20.04-23.736-40.451-47.217-60.893-70.081
			c-20.446-22.873-40.839-45.012-60.926-66.27c-20.074-21.243-39.797-41.544-58.744-60.594
			c-18.91-19.004-37.049-36.768-53.974-53.017c-33.85-32.501-62.853-58.963-83.256-77.242c-10.214-9.153-18.302-16.292-23.827-21.15
			c-5.535-4.85-8.486-7.436-8.486-7.436s1.09-0.876,3.133-2.52c2.053-1.632,5.03-4.066,8.893-7.074
			c7.767-5.965,18.773-14.6,32.402-24.417c3.402-2.46,6.945-5.023,10.613-7.676c3.716-2.588,7.557-5.263,11.506-8.014
			c3.965-2.729,8.01-5.569,12.217-8.371c4.219-2.785,8.529-5.631,12.912-8.524c8.744-5.818,18-11.508,27.365-17.341
			c4.67-2.936,9.484-5.731,14.28-8.592c4.81-2.839,9.632-5.702,14.492-8.499c19.506-11.089,39.258-21.765,58.136-31.101
			c4.719-2.332,9.36-4.625,13.903-6.87c4.587-2.157,9.075-4.267,13.444-6.322c4.378-2.036,8.631-4.026,12.769-5.9
			c4.159-1.832,8.177-3.601,12.035-5.3c3.866-1.68,7.57-3.29,11.094-4.821c3.531-1.514,6.913-2.876,10.078-4.187
			c6.347-2.581,11.88-4.831,16.437-6.684c9.187-3.528,14.436-5.544,14.436-5.544s0.707,3.867,2.031,11.118
			c1.338,7.246,3.32,17.868,5.947,31.35c5.242,26.927,13.126,65.434,23.788,111.196c5.328,22.878,11.35,47.567,18.064,73.548
			c6.74,26.042,14.174,53.375,22.262,81.483c16.131,56.163,35.058,115.647,55.741,174.247
			c10.319,29.274,21.129,58.473,32.159,86.982c11.03,28.513,22.294,56.368,33.552,83.134
			c22.572,53.678,45.131,102.937,65.317,144.738c20.211,41.875,37.969,76.23,50.605,100.147
			c6.321,11.962,11.354,21.301,14.81,27.684C923.784,870.531,925.633,873.932,925.633,873.932z"/>
	</g>
	<g>
		<path fill="#FFFFFF" d="M993.992,854.32c0,0-0.252-3.86-0.727-11.096c-0.487-7.236-1.221-17.85-2.259-31.356
			c-2.084-27.053-5.36-65.512-10.505-111.672c-2.571-23.077-5.607-48.068-9.167-74.482c-3.555-26.39-7.625-54.126-12.249-82.831
			c-4.62-28.693-9.789-58.321-15.48-88.374c-5.681-29.983-11.887-60.4-18.542-90.766c-13.298-60.798-28.421-121.11-44.141-177.451
			c-15.7-56.411-31.927-108.48-46.747-153.065c-14.81-44.597-28.128-81.404-37.682-107.126
			c-4.778-12.863-8.613-22.952-11.241-29.827c-2.641-6.873-4.05-10.538-4.05-10.538s5.519-1.049,15.176-2.885
			c4.83-0.914,10.716-1.856,17.463-2.991c6.75-1.117,14.365-2.384,22.696-3.519c16.65-2.421,36.122-4.841,57.008-6.776
			c5.223-0.458,10.533-0.924,15.909-1.396c5.377-0.485,10.814-0.773,16.3-1.148c5.486-0.333,11.015-0.669,16.566-1.006
			c5.546-0.223,11.114-0.447,16.682-0.671c22.278-0.86,44.49-0.904,65.347-0.512c5.208,0.051,10.348,0.267,15.371,0.44
			c5.024,0.197,9.94,0.389,14.726,0.577c9.57,0.42,18.634,1.069,26.988,1.599c2.089,0.142,4.134,0.281,6.133,0.417
			c2,0.169,3.954,0.334,5.858,0.495c3.809,0.333,7.421,0.65,10.816,0.948c6.789,0.612,12.704,1.141,17.575,1.716
			c9.738,1.109,15.303,1.743,15.303,1.743s-1.165,3.756-3.349,10.799c-2.171,7.044-5.334,17.38-9.251,30.551
			c-7.834,26.362-18.677,63.967-30.438,109.526c-5.882,22.754-11.992,47.438-18.091,73.583c-3.049,13.074-6.097,26.509-9.115,40.258
			c-3.02,13.781-6.01,27.87-8.948,42.207c-11.771,57.347-22.611,118.602-31.533,180.227c-4.47,30.78-8.473,61.567-11.971,91.902
			c-3.503,30.403-6.502,60.331-9.011,89.292c-2.509,28.98-4.528,56.911-6.119,83.536c-1.592,26.608-2.755,51.757-3.589,74.96
			c-0.835,23.204-1.341,44.462-1.639,63.296c-0.294,18.863-0.375,35.332-0.373,48.871c0.004,13.544,0.091,24.18,0.165,31.431
			C993.945,850.453,993.992,854.32,993.992,854.32z"/>
	</g>
	<g>
		<path fill="#FFFFFF" d="M1064.493,868.407c0,0,1.573-3.529,4.522-10.147c2.938-6.624,7.229-16.349,12.597-28.774
			s11.809-27.552,19.027-44.988c7.223-17.446,15.213-37.184,23.654-58.775c8.449-21.608,17.373-45.128,26.489-70.153
			c9.118-25.025,18.436-51.571,27.649-79.087c18.456-55.053,36.664-114.566,52.992-174.453
			c8.185-29.973,15.945-60.108,23.175-89.919c7.218-29.773,13.885-59.166,19.981-87.765c6.092-28.582,11.614-56.375,16.523-82.759
			c4.903-26.361,9.219-51.384,12.976-74.549c7.518-46.338,12.799-85.231,16.236-112.414c1.723-13.609,2.996-24.323,3.852-31.632
			c0.842-7.312,1.291-11.211,1.291-11.211s1.348,0.402,3.874,1.156c2.524,0.763,6.235,1.851,10.935,3.314
			c4.684,1.513,10.371,3.35,16.896,5.457c3.254,1.076,6.731,2.18,10.364,3.438c3.63,1.269,7.446,2.603,11.429,3.995
			c3.975,1.411,8.116,2.881,12.401,4.403c4.269,1.568,8.661,3.242,13.182,4.952c4.513,1.729,9.148,3.505,13.887,5.321
			c4.7,1.908,9.502,3.857,14.386,5.839c19.535,7.933,40.047,17.143,60.338,26.792c5.065,2.426,10.085,4.942,15.098,7.424
			c4.996,2.513,10.015,4.94,14.894,7.532c4.888,2.575,9.737,5.13,14.528,7.655c2.388,1.277,4.761,2.546,7.116,3.807
			c2.336,1.295,4.654,2.581,6.954,3.856c4.588,2.571,9.1,5.1,13.516,7.575c4.417,2.473,8.654,5.031,12.814,7.463
			c4.144,2.46,8.175,4.853,12.073,7.168c3.886,2.335,7.588,4.672,11.162,6.885c14.321,8.818,25.951,16.62,34.132,22.024
			c4.092,2.7,7.228,4.932,9.398,6.408c2.159,1.493,3.312,2.289,3.312,2.289s-2.781,2.776-7.996,7.982
			c-5.204,5.214-12.819,12.874-22.424,22.688c-19.182,19.593-46.44,47.98-78.051,82.691c-15.82,17.376-32.704,36.294-50.326,56.614
			c-17.621,20.314-35.914,41.931-54.477,64.524c-9.281,11.296-18.631,22.836-28.002,34.577c-9.375,11.746-18.8,23.738-28.187,35.86
			c-18.782,24.256-37.472,49.135-55.752,74.251c-18.278,25.107-36.222,50.582-53.448,75.805
			c-17.246,25.254-33.782,50.262-49.491,74.768c-15.707,24.5-30.522,48.376-44.273,71.163
			c-13.753,22.79-26.433,44.465-37.961,64.677c-23.037,40.374-41.269,74.469-53.805,98.43
			c-6.263,11.969-11.128,21.464-14.424,27.923C1066.245,864.957,1064.493,868.407,1064.493,868.407z"/>
	</g>
	<g>
		<path fill="#FFFFFF" d="M1120.66,914.431c0,0,3.028-2.4,8.705-6.9c5.669-4.511,13.973-11.144,24.48-19.67
			c20.998-17.043,50.88-41.719,85.888-72.208c34.976-30.448,75.233-66.884,117.134-107.163
			c20.941-20.124,42.332-41.225,63.783-63.006c10.724-10.888,21.473-21.954,32.173-33.13c10.684-11.162,21.337-22.452,31.917-33.825
			c21.161-22.746,42.024-45.829,62.272-68.867c20.24-23.028,39.788-45.942,58.482-68.43c18.681-22.473,36.485-44.5,53.111-65.577
			c16.603-21.052,32.065-41.19,46.172-59.941c14.106-18.75,26.858-36.113,38.053-51.603c11.196-15.492,20.785-29.056,28.657-40.301
			c7.865-11.238,13.984-20.123,18.146-26.19c4.152-6.076,6.367-9.316,6.367-9.316s3.986,3.92,10.962,10.779
			c3.423,3.495,7.579,7.739,12.347,12.607c2.365,2.451,4.92,5.024,7.53,7.816c2.609,2.792,5.354,5.728,8.217,8.792
			c2.849,3.077,5.816,6.282,8.888,9.6c3.01,3.375,6.12,6.863,9.318,10.45c3.183,3.601,6.471,7.283,9.767,11.104
			c3.265,3.849,6.601,7.78,9.992,11.778c6.811,7.974,13.57,16.449,20.466,25.037c3.467,4.278,6.826,8.701,10.229,13.115
			c3.392,4.423,6.799,8.863,10.162,13.335c13.324,17.992,26.275,36.271,37.794,53.843c2.878,4.393,5.708,8.713,8.478,12.942
			c2.689,4.283,5.32,8.473,7.882,12.552c2.543,4.091,5.031,8.06,7.381,11.936c2.316,3.898,4.555,7.664,6.703,11.279
			c2.131,3.625,4.174,7.1,6.116,10.405c1.916,3.32,3.683,6.501,5.361,9.479c3.325,5.974,6.224,11.183,8.611,15.472
			c4.604,8.676,7.235,13.633,7.235,13.633s-3.752,1.171-10.788,3.368c-7.03,2.208-17.332,5.467-30.395,9.712
			c-13.071,4.251-28.868,9.471-46.968,15.677c-18.103,6.207-38.448,13.366-60.511,21.431c-22.063,8.065-45.841,17.038-70.814,26.852
			c-25.024,9.842-51.261,20.537-78.182,31.968c-26.944,11.444-54.488,23.573-82.405,36.399
			c-27.887,12.806-55.979,26.206-83.82,40.005c-27.813,13.78-55.493,28.034-82.465,42.423
			c-26.975,14.389-53.268,28.929-78.482,43.33c-50.572,28.877-96.752,57.193-135.83,82.263
			c-39.141,25.098-71.114,46.853-93.342,62.268c-11.118,7.713-19.778,13.824-25.711,18.028
			C1123.814,912.187,1120.66,914.431,1120.66,914.431z"/>
	</g>
	<g>
		<path fill="#FFFFFF" d="M1148.529,979.673c0,0,3.8-0.709,10.924-2.039c7.123-1.343,17.567-3.332,30.847-5.968
			c26.546-5.271,64.506-13.151,109.645-23.765c22.59-5.311,47.023-11.315,72.806-18.015c12.892-3.35,26.12-6.873,39.623-10.565
			c13.47-3.685,27.215-7.54,41.172-11.559c55.824-16.058,115.131-34.838,173.713-55.387c29.325-10.273,58.544-20.989,87.194-31.957
			c28.59-10.95,56.591-22.148,83.594-33.359c26.988-11.206,53.019-22.437,77.514-33.366c24.487-10.925,47.54-21.575,68.746-31.629
			c21.206-10.054,40.564-19.513,57.675-28.037c17.105-8.522,31.9-16.089,44.093-22.397c12.183-6.306,21.728-11.338,28.23-14.783
			c6.498-3.457,9.964-5.3,9.964-5.3s1.719,5.356,4.728,14.729c1.411,4.715,3.125,10.441,5.091,17.009
			c0.965,3.29,2.017,6.783,3.058,10.484c1.015,3.708,2.08,7.608,3.192,11.677c1.094,4.075,2.231,8.319,3.41,12.711
			c1.152,4.399,2.248,8.969,3.408,13.661c1.135,4.697,2.302,9.522,3.494,14.454c1.139,4.942,2.233,10.006,3.361,15.154
			c1.107,5.151,2.272,10.382,3.336,15.697c1.028,5.322,2.069,10.708,3.118,16.137c2.137,10.855,3.887,21.939,5.714,33.017
			c7.136,44.344,10.971,88.996,12.565,122.411c0.355,8.351,0.641,16.008,0.871,22.796c0.238,6.788,0.251,12.686,0.337,17.553
			c0.099,9.73,0.154,15.29,0.154,15.29s-3.871-0.703-11.129-2.022c-7.259-1.305-17.905-3.199-31.459-5.502
			c-27.107-4.604-65.847-10.839-112.345-17.072c-46.597-6.252-101.011-12.46-159.233-17.307
			c-29.171-2.431-59.334-4.531-89.939-6.206c-30.634-1.674-61.623-2.931-92.767-3.707c-31.114-0.779-62.191-1.09-92.737-0.951
			c-15.275,0.069-30.407,0.249-45.365,0.536c-14.986,0.29-29.777,0.684-44.314,1.172c-58.161,1.942-112.152,5.428-158.509,9.394
			c-46.307,3.946-84.688,8.274-111.556,11.554c-13.452,1.645-24.006,3.022-31.198,3.975
			C1152.364,979.157,1148.529,979.673,1148.529,979.673z"/>
	</g>
</g>
</svg>
